Coordinates
version=1
nRows=8
nColumns=33
inDegrees=yes

Units are S.I. units (second, meters, Newtons, ...)
Angles are in degrees.

endheader
time	ground_thorax_rot_x	ground_thorax_rot_y	ground_thorax_rot_z	ground_thorax_tx	ground_thorax_ty	ground_thorax_tz	clav_prot_r	clav_elev_r	scapula_abduction_r	scapula_elevation_r	scapula_upward_rot_r	scapula_winging_r	shoulder_elv_r	plane_of_elev_r	axial_rot_r	elbow_flexion_r	pro_sup_r	wrist_flex_r	wrist_dev_r	clav_prot_l	clav_elev_l	scapula_abduction_l	scapula_elevation_l	scapula_upward_rot_l	scapula_winging_l	shoulder_elv_l	plane_of_elev_l	axial_rot_l	elbow_flexion_l	pro_sup_l	wrist_flex_l	wrist_dev_l
      8.96000000	     31.47453865	     24.78475224	     34.24601061	    -86.39381632	    853.39947172	    -45.39992265	     12.96714483	     34.03299237	     27.49751857	     45.00000000	    -45.00000000	  -2249.74475245	  -4246.54767777	     22.04614337	   -163.13753906	     -1.47379531	    157.20935462	     14.61688681	     14.79718236	     -6.05136172	    -45.00000000	    -40.33284382	     45.00000000	    -45.00000000	  -1333.94756593	    799.11299102	     25.59025821	     27.63754024	   1789.85573398	    398.11568310	     14.39008678	    -20.12619087
      8.97000000	     31.57135684	     24.62834627	     33.98330903	    -86.48864233	    854.28069653	    -45.26066083	     12.85444833	     34.05576517	     27.84736891	     45.00000000	    -45.00000000	  -2249.88997529	  -4246.88182442	     22.00533525	   -163.35958937	     -1.42739251	    157.27353031	     14.89923045	     14.87503705	     -5.74993656	    -45.00000000	    -40.70407143	     45.00000000	    -45.00000000	  -1333.64127526	    798.80309522	     25.90034165	     28.11733171	   1789.81999708	    398.30902112	     14.62126523	    -20.93141341
      8.98000000	     31.34033330	     24.89487246	     34.37067558	    -86.55078978	    855.02096473	    -45.12214668	     13.00325261	     34.00612977	     27.22758788	     45.00000000	    -45.00000000	  -2249.67947569	  -4246.45664769	     22.17015495	   -163.63835426	     -1.56947852	    157.40430201	     14.78979318	     14.76157635	     -5.98188301	    -45.00000000	    -40.28904967	     45.00000000	    -45.00000000	  -1334.05373569	    799.29277045	     25.60350805	     28.09659519	   1789.89898379	    398.68575866	     14.07349401	    -20.31347964
      8.99000000	     31.44536480	     24.72472746	     34.21820795	    -86.59290456	    855.60616116	    -44.99779320	     12.89560211	     34.03750653	     27.49579675	     45.00000000	    -45.00000000	  -2249.82229057	  -4246.69210235	     22.22098496	   -163.90918916	     -1.58827164	    157.54302266	     15.08787089	     14.81398952	     -5.80823583	    -45.00000000	    -40.36624972	     45.00000000	    -45.00000000	  -1333.73615964	    798.98499013	     25.92996571	     28.38439953	   1789.94473249	    399.07382470	     14.32184547	    -21.14777508
      9.00000000	     31.46484796	     24.69242741	     34.14798929	    -86.62536380	    856.02884998	    -44.89947626	     12.81302643	     33.92084812	     27.58925994	     45.00000000	    -45.00000000	  -2249.70775260	  -4246.74062415	     22.10909612	   -164.11956025	     -1.59594910	    157.71771198	     15.16846271	     14.82502732	     -5.87168356	    -45.00000000	    -40.46118323	     45.00000000	    -45.00000000	  -1333.87768518	    798.89011338	     25.79455724	     28.51571895	   1790.09765691	    399.47122270	     14.12403767	    -21.33327113
      9.01000000	     31.36592684	     24.76622731	     34.25908203	    -86.65458361	    856.28654366	    -44.83719483	     12.81154535	     34.04897962	     27.47817430	     45.00000000	    -45.00000000	  -2249.79912256	  -4246.81218463	     22.23135974	   -164.39678909	     -1.65156141	    157.84649851	     15.38575596	     14.77843129	     -5.87084477	    -45.00000000	    -40.39353841	     45.00000000	    -45.00000000	  -1333.72512226	    798.89740372	     25.97110371	     28.61313695	   1789.99858532	    399.90027046	     14.14522392	    -21.69390402
      9.02000000	     31.33185063	     24.79116636	     34.26430818	    -86.65492495	    856.28779961	    -44.83691905	     12.80892372	     34.04469271	     27.50855481	     45.00000000	    -45.00000000	  -2249.77827559	  -4246.81102662	     22.25299706	   -164.40418809	     -1.67710167	    157.84801740	     15.39232657	     14.78172495	     -5.87072564	    -45.00000000	    -40.37681750	     45.00000000	    -45.00000000	  -1333.74213065	    798.86776834	     25.97272466	     28.62409708	   1790.02597349	    399.90105742	     14.13701698	    -21.70104882
      9.03000000	     31.37567637	     24.74415882	     34.15387983	    -86.70752394	    856.34838307	    -44.83200850	     12.63521567	     33.84076767	     27.50557369	     45.00000000	    -45.00000000	  -2249.60805933	  -4246.83128051	     22.11517670	   -164.76070737	     -1.78733462	    158.04839022	     15.58289183	     14.81173341	     -5.92076704	    -45.00000000	    -40.38848417	     45.00000000	    -45.00000000	  -1333.90984727	    798.69447524	     25.77644139	     28.61175419	   1790.32196504	    400.40110430	     13.69225835	    -21.98133110
